<?xml version="1.0" standalone="no"?>
<svg xmlns:xlink="http://www.w3.org/1999/xlink" id="wave" style="transform:rotate(0deg); transition: 0.3s" viewBox="0 0 1440 310" version="1.1" xmlns="http://www.w3.org/2000/svg"><defs><linearGradient id="sw-gradient-0" x1="0" x2="0" y1="1" y2="0"><stop stop-color="rgba(79, 10, 135, 1)" offset="0%"/><stop stop-color="rgba(164, 80, 139, 1)" offset="100%"/></linearGradient></defs><path style="transform:translate(0, 0px); opacity:1" fill="url(#sw-gradient-0)" d="M0,248L48,232.5C96,217,192,186,288,170.5C384,155,480,155,576,165.3C672,176,768,196,864,180.8C960,165,1056,114,1152,103.3C1248,93,1344,124,1440,139.5C1536,155,1632,155,1728,160.2C1824,165,1920,176,2016,191.2C2112,207,2208,227,2304,206.7C2400,186,2496,124,2592,118.8C2688,114,2784,165,2880,180.8C2976,196,3072,176,3168,165.3C3264,155,3360,155,3456,144.7C3552,134,3648,114,3744,103.3C3840,93,3936,93,4032,113.7C4128,134,4224,176,4320,186C4416,196,4512,176,4608,170.5C4704,165,4800,176,4896,186C4992,196,5088,207,5184,201.5C5280,196,5376,176,5472,144.7C5568,114,5664,72,5760,82.7C5856,93,5952,155,6048,165.3C6144,176,6240,134,6336,134.3C6432,134,6528,176,6624,201.5C6720,227,6816,238,6864,242.8L6912,248L6912,310L6864,310C6816,310,6720,310,6624,310C6528,310,6432,310,6336,310C6240,310,6144,310,6048,310C5952,310,5856,310,5760,310C5664,310,5568,310,5472,310C5376,310,5280,310,5184,310C5088,310,4992,310,4896,310C4800,310,4704,310,4608,310C4512,310,4416,310,4320,310C4224,310,4128,310,4032,310C3936,310,3840,310,3744,310C3648,310,3552,310,3456,310C3360,310,3264,310,3168,310C3072,310,2976,310,2880,310C2784,310,2688,310,2592,310C2496,310,2400,310,2304,310C2208,310,2112,310,2016,310C1920,310,1824,310,1728,310C1632,310,1536,310,1440,310C1344,310,1248,310,1152,310C1056,310,960,310,864,310C768,310,672,310,576,310C480,310,384,310,288,310C192,310,96,310,48,310L0,310Z"/></svg>